<mxfile host="Electron" modified="2024-10-10T18:15:30.223Z" agent="Mozilla/5.0 (Windows NT 10.0; Win64; x64) AppleWebKit/537.36 (KHTML, like Gecko) draw.io/24.6.4 Chrome/124.0.6367.207 Electron/30.0.6 Safari/537.36" etag="sk-oqG8-Vsawha4EPc-K" version="24.6.4" type="device">
  <diagram name="Page-1" id="URxrtWIPA9O_A49K44DJ">
    <mxGraphModel dx="1615" dy="2068" grid="1" gridSize="10" guides="1" tooltips="1" connect="1" arrows="1" fold="1" page="1" pageScale="1" pageWidth="850" pageHeight="1100" math="0" shadow="0">
      <root>
        <mxCell id="0" />
        <mxCell id="1" parent="0" />
        <mxCell id="Rw3OwPzCOUPklT5W8J6p-1" value="" style="shape=note;whiteSpace=wrap;html=1;backgroundOutline=1;darkOpacity=0.05;" vertex="1" parent="1">
          <mxGeometry x="180" width="430" height="625" as="geometry" />
        </mxCell>
        <mxCell id="Rw3OwPzCOUPklT5W8J6p-2" value="Admin" style="shape=umlActor;verticalLabelPosition=bottom;verticalAlign=top;html=1;outlineConnect=0;" vertex="1" parent="1">
          <mxGeometry x="120" y="130" width="30" height="60" as="geometry" />
        </mxCell>
        <mxCell id="Rw3OwPzCOUPklT5W8J6p-3" value="Teacher" style="shape=umlActor;verticalLabelPosition=bottom;verticalAlign=top;html=1;outlineConnect=0;" vertex="1" parent="1">
          <mxGeometry x="120" y="430" width="30" height="60" as="geometry" />
        </mxCell>
        <mxCell id="Rw3OwPzCOUPklT5W8J6p-4" value="System" style="shape=umlActor;verticalLabelPosition=bottom;verticalAlign=top;html=1;outlineConnect=0;" vertex="1" parent="1">
          <mxGeometry x="650" y="130" width="30" height="70" as="geometry" />
        </mxCell>
        <mxCell id="Rw3OwPzCOUPklT5W8J6p-5" value="Student" style="shape=umlActor;verticalLabelPosition=bottom;verticalAlign=top;html=1;outlineConnect=0;" vertex="1" parent="1">
          <mxGeometry x="650" y="440" width="30" height="60" as="geometry" />
        </mxCell>
        <mxCell id="Rw3OwPzCOUPklT5W8J6p-12" value="&lt;span style=&quot;font-family: sans-serif; font-size: 14px; text-align: start; text-wrap: nowrap; background-color: rgb(255, 255, 255);&quot;&gt;Add/Remove Classes&lt;/span&gt;" style="ellipse;whiteSpace=wrap;html=1;align=center;" vertex="1" parent="1">
          <mxGeometry x="230" y="60" width="160" height="40" as="geometry" />
        </mxCell>
        <mxCell id="Rw3OwPzCOUPklT5W8J6p-13" value="&lt;span style=&quot;font-family: sans-serif; font-size: 14px; text-align: start; text-wrap: nowrap; background-color: rgb(255, 255, 255);&quot;&gt;Manage Teachers&lt;/span&gt;" style="ellipse;whiteSpace=wrap;html=1;align=center;" vertex="1" parent="1">
          <mxGeometry x="230" y="110" width="160" height="40" as="geometry" />
        </mxCell>
        <mxCell id="Rw3OwPzCOUPklT5W8J6p-14" value="&lt;span style=&quot;font-family: sans-serif; font-size: 14px; text-align: start; text-wrap: nowrap; background-color: rgb(255, 255, 255);&quot;&gt;Manage Students&lt;/span&gt;" style="ellipse;whiteSpace=wrap;html=1;align=center;" vertex="1" parent="1">
          <mxGeometry x="230" y="160" width="140" height="40" as="geometry" />
        </mxCell>
        <mxCell id="Rw3OwPzCOUPklT5W8J6p-15" value="&lt;span style=&quot;font-family: sans-serif; font-size: 14px; text-align: start; text-wrap: nowrap; background-color: rgb(255, 255, 255);&quot;&gt;Generate Reports&lt;/span&gt;" style="ellipse;whiteSpace=wrap;html=1;align=center;" vertex="1" parent="1">
          <mxGeometry x="230" y="210" width="150" height="40" as="geometry" />
        </mxCell>
        <mxCell id="Rw3OwPzCOUPklT5W8J6p-16" value="&lt;span style=&quot;font-family: sans-serif; font-size: 14px; text-align: start; text-wrap: nowrap; background-color: rgb(255, 255, 255);&quot;&gt;View Class Schedule&lt;/span&gt;" style="ellipse;whiteSpace=wrap;html=1;align=center;" vertex="1" parent="1">
          <mxGeometry x="280" y="360" width="160" height="40" as="geometry" />
        </mxCell>
        <mxCell id="Rw3OwPzCOUPklT5W8J6p-17" value="&lt;span style=&quot;font-family: sans-serif; font-size: 14px; text-align: start; text-wrap: nowrap; background-color: rgb(255, 255, 255);&quot;&gt;Make Payments&lt;/span&gt;" style="ellipse;whiteSpace=wrap;html=1;align=center;" vertex="1" parent="1">
          <mxGeometry x="400" y="500" width="130" height="40" as="geometry" />
        </mxCell>
        <mxCell id="Rw3OwPzCOUPklT5W8J6p-19" value="&#xa;&lt;span style=&quot;color: rgb(0, 0, 0); font-family: sans-serif; font-size: 14px; font-style: normal; font-variant-ligatures: normal; font-variant-caps: normal; font-weight: 400; letter-spacing: normal; orphans: 2; text-align: start; text-indent: 0px; text-transform: none; widows: 2; word-spacing: 0px; -webkit-text-stroke-width: 0px; white-space: nowrap; background-color: rgb(255, 255, 255); text-decoration-thickness: initial; text-decoration-style: initial; text-decoration-color: initial; display: inline !important; float: none;&quot;&gt;Mark Attendance&lt;/span&gt;&#xa;&#xa;" style="ellipse;whiteSpace=wrap;html=1;align=center;" vertex="1" parent="1">
          <mxGeometry x="240" y="430" width="170" height="40" as="geometry" />
        </mxCell>
        <mxCell id="Rw3OwPzCOUPklT5W8J6p-20" value="&lt;br&gt;&lt;span style=&quot;color: rgb(0, 0, 0); font-family: sans-serif; font-size: 14px; font-style: normal; font-variant-ligatures: normal; font-variant-caps: normal; font-weight: 400; letter-spacing: normal; orphans: 2; text-align: start; text-indent: 0px; text-transform: none; widows: 2; word-spacing: 0px; -webkit-text-stroke-width: 0px; white-space: nowrap; background-color: rgb(255, 255, 255); text-decoration-thickness: initial; text-decoration-style: initial; text-decoration-color: initial; display: inline !important; float: none;&quot;&gt;Register for&amp;nbsp;&lt;/span&gt;&lt;div&gt;&lt;span style=&quot;color: rgb(0, 0, 0); font-family: sans-serif; font-size: 14px; font-style: normal; font-variant-ligatures: normal; font-variant-caps: normal; font-weight: 400; letter-spacing: normal; orphans: 2; text-align: start; text-indent: 0px; text-transform: none; widows: 2; word-spacing: 0px; -webkit-text-stroke-width: 0px; white-space: nowrap; background-color: rgb(255, 255, 255); text-decoration-thickness: initial; text-decoration-style: initial; text-decoration-color: initial; display: inline !important; float: none;&quot;&gt;Classes&lt;/span&gt;&lt;br&gt;&lt;br&gt;&lt;/div&gt;" style="ellipse;whiteSpace=wrap;html=1;align=center;" vertex="1" parent="1">
          <mxGeometry x="430" y="440" width="150" height="40" as="geometry" />
        </mxCell>
        <mxCell id="Rw3OwPzCOUPklT5W8J6p-21" value="&lt;span style=&quot;font-family: sans-serif; font-size: 14px; text-align: start; text-wrap: nowrap; background-color: rgb(255, 255, 255);&quot;&gt;View Payment&lt;/span&gt;&lt;div&gt;&lt;span style=&quot;font-family: sans-serif; font-size: 14px; text-align: start; text-wrap: nowrap; background-color: rgb(255, 255, 255);&quot;&gt;&amp;nbsp;History&lt;/span&gt;&lt;/div&gt;" style="ellipse;whiteSpace=wrap;html=1;align=center;" vertex="1" parent="1">
          <mxGeometry x="360" y="570" width="180" height="40" as="geometry" />
        </mxCell>
        <mxCell id="Rw3OwPzCOUPklT5W8J6p-22" value="&lt;span style=&quot;font-family: sans-serif; font-size: 14px; text-align: start; text-wrap: nowrap; background-color: rgb(255, 255, 255);&quot;&gt;Process&lt;/span&gt;&lt;div&gt;&lt;span style=&quot;font-family: sans-serif; font-size: 14px; text-align: start; text-wrap: nowrap; background-color: rgb(255, 255, 255);&quot;&gt;&amp;nbsp;Payments&lt;/span&gt;&lt;/div&gt;" style="ellipse;whiteSpace=wrap;html=1;align=center;" vertex="1" parent="1">
          <mxGeometry x="425" y="110" width="100" height="40" as="geometry" />
        </mxCell>
        <mxCell id="Rw3OwPzCOUPklT5W8J6p-23" value="&lt;span style=&quot;font-family: sans-serif; font-size: 14px; text-align: start; text-wrap: nowrap; background-color: rgb(255, 255, 255);&quot;&gt;Send&amp;nbsp;&lt;/span&gt;&lt;div&gt;&lt;span style=&quot;font-family: sans-serif; font-size: 14px; text-align: start; text-wrap: nowrap; background-color: rgb(255, 255, 255);&quot;&gt;Notifications&lt;/span&gt;&lt;/div&gt;" style="ellipse;whiteSpace=wrap;html=1;align=center;" vertex="1" parent="1">
          <mxGeometry x="420" y="160" width="105" height="50" as="geometry" />
        </mxCell>
        <mxCell id="Rw3OwPzCOUPklT5W8J6p-24" value="&lt;span style=&quot;font-family: sans-serif; font-size: 14px; text-align: start; text-wrap: nowrap; background-color: rgb(255, 255, 255);&quot;&gt;Update&lt;/span&gt;&lt;div&gt;&lt;span style=&quot;font-family: sans-serif; font-size: 14px; text-align: start; text-wrap: nowrap; background-color: rgb(255, 255, 255);&quot;&gt;&amp;nbsp;Records&lt;/span&gt;&lt;/div&gt;" style="ellipse;whiteSpace=wrap;html=1;align=center;" vertex="1" parent="1">
          <mxGeometry x="420" y="230" width="110" height="50" as="geometry" />
        </mxCell>
        <mxCell id="Rw3OwPzCOUPklT5W8J6p-26" value="" style="endArrow=open;endFill=1;endSize=12;html=1;rounded=0;exitX=1;exitY=0.3333333333333333;exitDx=0;exitDy=0;exitPerimeter=0;entryX=0;entryY=0.5;entryDx=0;entryDy=0;" edge="1" parent="1" source="Rw3OwPzCOUPklT5W8J6p-3" target="Rw3OwPzCOUPklT5W8J6p-16">
          <mxGeometry width="160" relative="1" as="geometry">
            <mxPoint x="340" y="330" as="sourcePoint" />
            <mxPoint x="500" y="330" as="targetPoint" />
          </mxGeometry>
        </mxCell>
        <mxCell id="Rw3OwPzCOUPklT5W8J6p-27" value="" style="endArrow=open;endFill=1;endSize=12;html=1;rounded=0;entryX=0;entryY=0.5;entryDx=0;entryDy=0;" edge="1" parent="1" target="Rw3OwPzCOUPklT5W8J6p-19">
          <mxGeometry width="160" relative="1" as="geometry">
            <mxPoint x="150" y="450" as="sourcePoint" />
            <mxPoint x="500" y="330" as="targetPoint" />
          </mxGeometry>
        </mxCell>
        <mxCell id="Rw3OwPzCOUPklT5W8J6p-28" value="" style="endArrow=open;endFill=1;endSize=12;html=1;rounded=0;entryX=0;entryY=0.5;entryDx=0;entryDy=0;" edge="1" parent="1" target="Rw3OwPzCOUPklT5W8J6p-41">
          <mxGeometry width="160" relative="1" as="geometry">
            <mxPoint x="150" y="450" as="sourcePoint" />
            <mxPoint x="252.771710609705" y="488.98237298988806" as="targetPoint" />
          </mxGeometry>
        </mxCell>
        <mxCell id="Rw3OwPzCOUPklT5W8J6p-29" value="" style="endArrow=open;endFill=1;endSize=12;html=1;rounded=0;exitX=0;exitY=0.3333333333333333;exitDx=0;exitDy=0;exitPerimeter=0;entryX=1;entryY=0.5;entryDx=0;entryDy=0;" edge="1" parent="1" source="Rw3OwPzCOUPklT5W8J6p-5" target="Rw3OwPzCOUPklT5W8J6p-16">
          <mxGeometry width="160" relative="1" as="geometry">
            <mxPoint x="340" y="330" as="sourcePoint" />
            <mxPoint x="500" y="330" as="targetPoint" />
          </mxGeometry>
        </mxCell>
        <mxCell id="Rw3OwPzCOUPklT5W8J6p-30" value="" style="endArrow=open;endFill=1;endSize=12;html=1;rounded=0;exitX=0;exitY=0.3333333333333333;exitDx=0;exitDy=0;exitPerimeter=0;entryX=1;entryY=0.5;entryDx=0;entryDy=0;" edge="1" parent="1" source="Rw3OwPzCOUPklT5W8J6p-5" target="Rw3OwPzCOUPklT5W8J6p-20">
          <mxGeometry width="160" relative="1" as="geometry">
            <mxPoint x="340" y="330" as="sourcePoint" />
            <mxPoint x="500" y="330" as="targetPoint" />
          </mxGeometry>
        </mxCell>
        <mxCell id="Rw3OwPzCOUPklT5W8J6p-32" value="" style="endArrow=open;endFill=1;endSize=12;html=1;rounded=0;entryX=1.004;entryY=0.29;entryDx=0;entryDy=0;entryPerimeter=0;" edge="1" parent="1" target="Rw3OwPzCOUPklT5W8J6p-21">
          <mxGeometry width="160" relative="1" as="geometry">
            <mxPoint x="650" y="460" as="sourcePoint" />
            <mxPoint x="500" y="330" as="targetPoint" />
          </mxGeometry>
        </mxCell>
        <mxCell id="Rw3OwPzCOUPklT5W8J6p-33" value="" style="endArrow=open;endFill=1;endSize=12;html=1;rounded=0;entryX=0.936;entryY=0.33;entryDx=0;entryDy=0;entryPerimeter=0;" edge="1" parent="1" target="Rw3OwPzCOUPklT5W8J6p-17">
          <mxGeometry width="160" relative="1" as="geometry">
            <mxPoint x="650" y="460" as="sourcePoint" />
            <mxPoint x="500" y="330" as="targetPoint" />
          </mxGeometry>
        </mxCell>
        <mxCell id="Rw3OwPzCOUPklT5W8J6p-34" value="" style="endArrow=open;endFill=1;endSize=12;html=1;rounded=0;exitX=0;exitY=0.3333333333333333;exitDx=0;exitDy=0;exitPerimeter=0;entryX=1;entryY=0.5;entryDx=0;entryDy=0;" edge="1" parent="1" source="Rw3OwPzCOUPklT5W8J6p-4" target="Rw3OwPzCOUPklT5W8J6p-22">
          <mxGeometry width="160" relative="1" as="geometry">
            <mxPoint x="340" y="330" as="sourcePoint" />
            <mxPoint x="500" y="330" as="targetPoint" />
          </mxGeometry>
        </mxCell>
        <mxCell id="Rw3OwPzCOUPklT5W8J6p-35" value="" style="endArrow=open;endFill=1;endSize=12;html=1;rounded=0;entryX=1;entryY=0.5;entryDx=0;entryDy=0;exitX=0;exitY=0.3333333333333333;exitDx=0;exitDy=0;exitPerimeter=0;" edge="1" parent="1" source="Rw3OwPzCOUPklT5W8J6p-4" target="Rw3OwPzCOUPklT5W8J6p-23">
          <mxGeometry width="160" relative="1" as="geometry">
            <mxPoint x="640" y="160" as="sourcePoint" />
            <mxPoint x="535" y="140" as="targetPoint" />
          </mxGeometry>
        </mxCell>
        <mxCell id="Rw3OwPzCOUPklT5W8J6p-36" value="" style="endArrow=open;endFill=1;endSize=12;html=1;rounded=0;entryX=1;entryY=0;entryDx=0;entryDy=0;exitX=0;exitY=0.3333333333333333;exitDx=0;exitDy=0;exitPerimeter=0;" edge="1" parent="1" source="Rw3OwPzCOUPklT5W8J6p-4" target="Rw3OwPzCOUPklT5W8J6p-24">
          <mxGeometry width="160" relative="1" as="geometry">
            <mxPoint x="650" y="150" as="sourcePoint" />
            <mxPoint x="545" y="150" as="targetPoint" />
          </mxGeometry>
        </mxCell>
        <mxCell id="Rw3OwPzCOUPklT5W8J6p-37" value="" style="endArrow=open;endFill=1;endSize=12;html=1;rounded=0;entryX=0;entryY=0.5;entryDx=0;entryDy=0;exitX=1;exitY=0.3333333333333333;exitDx=0;exitDy=0;exitPerimeter=0;" edge="1" parent="1" source="Rw3OwPzCOUPklT5W8J6p-2" target="Rw3OwPzCOUPklT5W8J6p-12">
          <mxGeometry width="160" relative="1" as="geometry">
            <mxPoint x="340" y="330" as="sourcePoint" />
            <mxPoint x="500" y="330" as="targetPoint" />
          </mxGeometry>
        </mxCell>
        <mxCell id="Rw3OwPzCOUPklT5W8J6p-38" value="" style="endArrow=open;endFill=1;endSize=12;html=1;rounded=0;exitX=1;exitY=0.3333333333333333;exitDx=0;exitDy=0;exitPerimeter=0;entryX=0;entryY=0.5;entryDx=0;entryDy=0;" edge="1" parent="1" source="Rw3OwPzCOUPklT5W8J6p-2" target="Rw3OwPzCOUPklT5W8J6p-13">
          <mxGeometry width="160" relative="1" as="geometry">
            <mxPoint x="340" y="330" as="sourcePoint" />
            <mxPoint x="500" y="330" as="targetPoint" />
          </mxGeometry>
        </mxCell>
        <mxCell id="Rw3OwPzCOUPklT5W8J6p-39" value="" style="endArrow=open;endFill=1;endSize=12;html=1;rounded=0;exitX=1;exitY=0.3333333333333333;exitDx=0;exitDy=0;exitPerimeter=0;entryX=0;entryY=0.5;entryDx=0;entryDy=0;" edge="1" parent="1" source="Rw3OwPzCOUPklT5W8J6p-2" target="Rw3OwPzCOUPklT5W8J6p-14">
          <mxGeometry width="160" relative="1" as="geometry">
            <mxPoint x="340" y="330" as="sourcePoint" />
            <mxPoint x="500" y="330" as="targetPoint" />
          </mxGeometry>
        </mxCell>
        <mxCell id="Rw3OwPzCOUPklT5W8J6p-40" value="" style="endArrow=open;endFill=1;endSize=12;html=1;rounded=0;entryX=0;entryY=0.5;entryDx=0;entryDy=0;" edge="1" parent="1" target="Rw3OwPzCOUPklT5W8J6p-15">
          <mxGeometry width="160" relative="1" as="geometry">
            <mxPoint x="150" y="150" as="sourcePoint" />
            <mxPoint x="500" y="330" as="targetPoint" />
          </mxGeometry>
        </mxCell>
        <mxCell id="Rw3OwPzCOUPklT5W8J6p-41" value="&lt;span style=&quot;font-family: sans-serif; font-size: 14px; text-align: start; text-wrap: nowrap; background-color: rgb(255, 255, 255);&quot;&gt;Manage Class Details&lt;/span&gt;" style="ellipse;whiteSpace=wrap;html=1;align=center;" vertex="1" parent="1">
          <mxGeometry x="240" y="490" width="150" height="40" as="geometry" />
        </mxCell>
        <mxCell id="Rw3OwPzCOUPklT5W8J6p-42" value="&lt;pre style=&quot;text-align: justify;&quot;&gt;&lt;font style=&quot;font-size: 14px;&quot;&gt;Use Case Diagram&lt;/font&gt;&lt;/pre&gt;" style="text;html=1;align=right;verticalAlign=middle;whiteSpace=wrap;rounded=0;" vertex="1" parent="1">
          <mxGeometry x="260" y="20" width="60" height="30" as="geometry" />
        </mxCell>
        <mxCell id="Rw3OwPzCOUPklT5W8J6p-43" value="&lt;pre style=&quot;font-size: 18px;&quot;&gt;Smart Academy System &lt;/pre&gt;" style="text;html=1;align=center;verticalAlign=middle;whiteSpace=wrap;rounded=0;" vertex="1" parent="1">
          <mxGeometry x="270" width="60" height="30" as="geometry" />
        </mxCell>
        <mxCell id="Rw3OwPzCOUPklT5W8J6p-46" value="&lt;pre style=&quot;font-size: 28px;&quot;&gt;Smart Academy System &lt;/pre&gt;" style="text;html=1;align=center;verticalAlign=middle;whiteSpace=wrap;rounded=0;" vertex="1" parent="1">
          <mxGeometry x="160" y="-70" width="60" height="30" as="geometry" />
        </mxCell>
        <mxCell id="Rw3OwPzCOUPklT5W8J6p-47" value="&lt;pre style=&quot;text-align: justify;&quot;&gt;&lt;font style=&quot;font-size: 26px;&quot;&gt;Use Case Diagram&lt;/font&gt;&lt;/pre&gt;" style="text;html=1;align=center;verticalAlign=middle;whiteSpace=wrap;rounded=0;" vertex="1" parent="1">
          <mxGeometry x="10" y="-40" width="260" height="30" as="geometry" />
        </mxCell>
        <mxCell id="Rw3OwPzCOUPklT5W8J6p-48" value="&lt;br&gt;&lt;pre style=&quot;forced-color-adjust: none; color: rgb(0, 0, 0); font-size: 12px; font-style: normal; font-variant-ligatures: normal; font-variant-caps: normal; font-weight: 400; letter-spacing: normal; orphans: 2; text-indent: 0px; text-transform: none; widows: 2; word-spacing: 0px; -webkit-text-stroke-width: 0px; background-color: rgb(251, 251, 251); text-decoration-thickness: initial; text-decoration-style: initial; text-decoration-color: initial; text-align: justify;&quot;&gt;&lt;font style=&quot;forced-color-adjust: none; font-size: 26px;&quot;&gt;ER Diagram&lt;/font&gt;&lt;/pre&gt;&lt;div&gt;&lt;br/&gt;&lt;/div&gt;" style="text;html=1;align=center;verticalAlign=middle;whiteSpace=wrap;rounded=0;" vertex="1" parent="1">
          <mxGeometry x="10" y="690" width="230" height="30" as="geometry" />
        </mxCell>
        <mxCell id="Rw3OwPzCOUPklT5W8J6p-50" value="&lt;span style=&quot;text-wrap: nowrap;&quot;&gt;Admin&lt;/span&gt;" style="whiteSpace=wrap;html=1;align=center;" vertex="1" parent="1">
          <mxGeometry x="520" y="880" width="100" height="40" as="geometry" />
        </mxCell>
        <mxCell id="Rw3OwPzCOUPklT5W8J6p-51" value="&lt;span style=&quot;text-wrap: nowrap;&quot;&gt;Student&lt;/span&gt;" style="whiteSpace=wrap;html=1;align=center;" vertex="1" parent="1">
          <mxGeometry x="160" y="880" width="100" height="40" as="geometry" />
        </mxCell>
        <mxCell id="Rw3OwPzCOUPklT5W8J6p-52" value="&lt;span style=&quot;text-wrap: nowrap;&quot;&gt;Teacher&lt;/span&gt;" style="whiteSpace=wrap;html=1;align=center;" vertex="1" parent="1">
          <mxGeometry x="900" y="880" width="100" height="40" as="geometry" />
        </mxCell>
        <mxCell id="Rw3OwPzCOUPklT5W8J6p-53" value="Class" style="whiteSpace=wrap;html=1;align=center;" vertex="1" parent="1">
          <mxGeometry x="520" y="1140" width="100" height="40" as="geometry" />
        </mxCell>
        <mxCell id="Rw3OwPzCOUPklT5W8J6p-57" value="&lt;span style=&quot;text-wrap: nowrap;&quot;&gt;Payments&lt;/span&gt;" style="whiteSpace=wrap;html=1;align=center;" vertex="1" parent="1">
          <mxGeometry x="160" y="1170" width="100" height="40" as="geometry" />
        </mxCell>
        <mxCell id="Rw3OwPzCOUPklT5W8J6p-58" value="&amp;nbsp;Teacher_ID" style="ellipse;whiteSpace=wrap;html=1;align=center;fontStyle=4;" vertex="1" parent="1">
          <mxGeometry x="980" y="780" width="100" height="40" as="geometry" />
        </mxCell>
        <mxCell id="Rw3OwPzCOUPklT5W8J6p-59" value="Name" style="ellipse;whiteSpace=wrap;html=1;align=center;" vertex="1" parent="1">
          <mxGeometry x="840" y="770" width="100" height="40" as="geometry" />
        </mxCell>
        <mxCell id="Rw3OwPzCOUPklT5W8J6p-61" value="&amp;nbsp;Phone_Number" style="ellipse;whiteSpace=wrap;html=1;align=center;" vertex="1" parent="1">
          <mxGeometry x="1060" y="980" width="100" height="40" as="geometry" />
        </mxCell>
        <mxCell id="Rw3OwPzCOUPklT5W8J6p-62" value="&amp;nbsp;Email" style="ellipse;whiteSpace=wrap;html=1;align=center;" vertex="1" parent="1">
          <mxGeometry x="920" y="990" width="100" height="40" as="geometry" />
        </mxCell>
        <mxCell id="Rw3OwPzCOUPklT5W8J6p-63" value="Subject" style="ellipse;whiteSpace=wrap;html=1;align=center;" vertex="1" parent="1">
          <mxGeometry x="1090" y="850" width="100" height="40" as="geometry" />
        </mxCell>
        <mxCell id="Rw3OwPzCOUPklT5W8J6p-64" value="Student_ID" style="ellipse;whiteSpace=wrap;html=1;align=center;fontStyle=4;" vertex="1" parent="1">
          <mxGeometry x="190" y="770" width="100" height="40" as="geometry" />
        </mxCell>
        <mxCell id="Rw3OwPzCOUPklT5W8J6p-65" value="Name" style="ellipse;whiteSpace=wrap;html=1;align=center;" vertex="1" parent="1">
          <mxGeometry x="40" y="770" width="100" height="40" as="geometry" />
        </mxCell>
        <mxCell id="Rw3OwPzCOUPklT5W8J6p-66" value="&amp;nbsp;Age" style="ellipse;whiteSpace=wrap;html=1;align=center;" vertex="1" parent="1">
          <mxGeometry x="20" y="840" width="100" height="40" as="geometry" />
        </mxCell>
        <mxCell id="Rw3OwPzCOUPklT5W8J6p-67" value="&amp;nbsp;Address" style="ellipse;whiteSpace=wrap;html=1;align=center;" vertex="1" parent="1">
          <mxGeometry x="10" y="920" width="100" height="40" as="geometry" />
        </mxCell>
        <mxCell id="Rw3OwPzCOUPklT5W8J6p-68" value="Phone_Number" style="ellipse;whiteSpace=wrap;html=1;align=center;" vertex="1" parent="1">
          <mxGeometry x="20" y="990" width="100" height="40" as="geometry" />
        </mxCell>
        <mxCell id="Rw3OwPzCOUPklT5W8J6p-69" value="Admin_ID" style="ellipse;whiteSpace=wrap;html=1;align=center;fontStyle=4;" vertex="1" parent="1">
          <mxGeometry x="550" y="750" width="100" height="40" as="geometry" />
        </mxCell>
        <mxCell id="Rw3OwPzCOUPklT5W8J6p-70" value="Name" style="ellipse;whiteSpace=wrap;html=1;align=center;" vertex="1" parent="1">
          <mxGeometry x="340" y="780" width="100" height="40" as="geometry" />
        </mxCell>
        <mxCell id="Rw3OwPzCOUPklT5W8J6p-71" value="Password" style="ellipse;whiteSpace=wrap;html=1;align=center;" vertex="1" parent="1">
          <mxGeometry x="670" y="770" width="100" height="40" as="geometry" />
        </mxCell>
        <mxCell id="Rw3OwPzCOUPklT5W8J6p-72" value="Username" style="ellipse;whiteSpace=wrap;html=1;align=center;" vertex="1" parent="1">
          <mxGeometry x="425" y="750" width="100" height="40" as="geometry" />
        </mxCell>
        <mxCell id="Rw3OwPzCOUPklT5W8J6p-73" value="Student_ID" style="ellipse;whiteSpace=wrap;html=1;align=center;fontStyle=4;" vertex="1" parent="1">
          <mxGeometry x="325" y="1250" width="100" height="40" as="geometry" />
        </mxCell>
        <mxCell id="Rw3OwPzCOUPklT5W8J6p-74" value="Payment_ID" style="ellipse;whiteSpace=wrap;html=1;align=center;fontStyle=4;" vertex="1" parent="1">
          <mxGeometry x="250" y="1120" width="100" height="40" as="geometry" />
        </mxCell>
        <mxCell id="Rw3OwPzCOUPklT5W8J6p-75" value="Payment_Date" style="ellipse;whiteSpace=wrap;html=1;align=center;" vertex="1" parent="1">
          <mxGeometry x="180" y="1290" width="100" height="40" as="geometry" />
        </mxCell>
        <mxCell id="Rw3OwPzCOUPklT5W8J6p-76" value="Amount" style="ellipse;whiteSpace=wrap;html=1;align=center;" vertex="1" parent="1">
          <mxGeometry x="10" y="1120" width="100" height="40" as="geometry" />
        </mxCell>
        <mxCell id="Rw3OwPzCOUPklT5W8J6p-77" value="Payment_Method" style="ellipse;whiteSpace=wrap;html=1;align=center;" vertex="1" parent="1">
          <mxGeometry x="30" y="1260" width="100" height="40" as="geometry" />
        </mxCell>
        <mxCell id="Rw3OwPzCOUPklT5W8J6p-78" value="&amp;nbsp;Class_ID" style="ellipse;whiteSpace=wrap;html=1;align=center;fontStyle=4;" vertex="1" parent="1">
          <mxGeometry x="740" y="1170" width="100" height="40" as="geometry" />
        </mxCell>
        <mxCell id="Rw3OwPzCOUPklT5W8J6p-79" value="Subject" style="ellipse;whiteSpace=wrap;html=1;align=center;" vertex="1" parent="1">
          <mxGeometry x="630" y="1270" width="100" height="40" as="geometry" />
        </mxCell>
        <mxCell id="Rw3OwPzCOUPklT5W8J6p-80" value="&amp;nbsp;&amp;nbsp;Class_Name&amp;nbsp;" style="ellipse;whiteSpace=wrap;html=1;align=center;" vertex="1" parent="1">
          <mxGeometry x="660" y="1220" width="100" height="40" as="geometry" />
        </mxCell>
        <mxCell id="Rw3OwPzCOUPklT5W8J6p-81" value="Schedule" style="ellipse;whiteSpace=wrap;html=1;align=center;" vertex="1" parent="1">
          <mxGeometry x="510" y="1290" width="100" height="40" as="geometry" />
        </mxCell>
        <mxCell id="Rw3OwPzCOUPklT5W8J6p-82" value="Teacher_ID" style="ellipse;whiteSpace=wrap;html=1;align=center;" vertex="1" parent="1">
          <mxGeometry x="430" y="1220" width="100" height="40" as="geometry" />
        </mxCell>
        <mxCell id="Rw3OwPzCOUPklT5W8J6p-83" value="" style="endArrow=none;html=1;rounded=0;" edge="1" parent="1" source="Rw3OwPzCOUPklT5W8J6p-50" target="Rw3OwPzCOUPklT5W8J6p-69">
          <mxGeometry relative="1" as="geometry">
            <mxPoint x="340" y="760" as="sourcePoint" />
            <mxPoint x="500" y="760" as="targetPoint" />
          </mxGeometry>
        </mxCell>
        <mxCell id="Rw3OwPzCOUPklT5W8J6p-85" value="" style="endArrow=none;html=1;rounded=0;entryX=0;entryY=0;entryDx=0;entryDy=0;exitX=1;exitY=1;exitDx=0;exitDy=0;" edge="1" parent="1" source="Rw3OwPzCOUPklT5W8J6p-70" target="Rw3OwPzCOUPklT5W8J6p-50">
          <mxGeometry relative="1" as="geometry">
            <mxPoint x="110" y="820" as="sourcePoint" />
            <mxPoint x="110" y="770" as="targetPoint" />
          </mxGeometry>
        </mxCell>
        <mxCell id="Rw3OwPzCOUPklT5W8J6p-86" value="" style="endArrow=none;html=1;rounded=0;exitX=0.268;exitY=1.1;exitDx=0;exitDy=0;exitPerimeter=0;" edge="1" parent="1" source="Rw3OwPzCOUPklT5W8J6p-71" target="Rw3OwPzCOUPklT5W8J6p-50">
          <mxGeometry relative="1" as="geometry">
            <mxPoint x="340" y="760" as="sourcePoint" />
            <mxPoint x="500" y="760" as="targetPoint" />
          </mxGeometry>
        </mxCell>
        <mxCell id="Rw3OwPzCOUPklT5W8J6p-87" value="" style="endArrow=none;html=1;rounded=0;entryX=0.124;entryY=-0.04;entryDx=0;entryDy=0;exitX=0.622;exitY=1.05;exitDx=0;exitDy=0;exitPerimeter=0;entryPerimeter=0;" edge="1" parent="1" source="Rw3OwPzCOUPklT5W8J6p-72" target="Rw3OwPzCOUPklT5W8J6p-50">
          <mxGeometry relative="1" as="geometry">
            <mxPoint x="30" y="890" as="sourcePoint" />
            <mxPoint x="30" y="840" as="targetPoint" />
          </mxGeometry>
        </mxCell>
        <mxCell id="Rw3OwPzCOUPklT5W8J6p-88" value="" style="endArrow=none;html=1;rounded=0;exitX=0.648;exitY=-0.02;exitDx=0;exitDy=0;exitPerimeter=0;entryX=1;entryY=1;entryDx=0;entryDy=0;" edge="1" parent="1" source="Rw3OwPzCOUPklT5W8J6p-51" target="Rw3OwPzCOUPklT5W8J6p-64">
          <mxGeometry relative="1" as="geometry">
            <mxPoint x="330" y="810" as="sourcePoint" />
            <mxPoint x="330" y="760" as="targetPoint" />
          </mxGeometry>
        </mxCell>
        <mxCell id="Rw3OwPzCOUPklT5W8J6p-89" value="" style="endArrow=none;html=1;rounded=0;exitX=0.5;exitY=0;exitDx=0;exitDy=0;" edge="1" parent="1" source="Rw3OwPzCOUPklT5W8J6p-68">
          <mxGeometry relative="1" as="geometry">
            <mxPoint x="540" y="770" as="sourcePoint" />
            <mxPoint x="180" y="922" as="targetPoint" />
          </mxGeometry>
        </mxCell>
        <mxCell id="Rw3OwPzCOUPklT5W8J6p-90" value="" style="endArrow=none;html=1;rounded=0;entryX=1;entryY=0.5;entryDx=0;entryDy=0;" edge="1" parent="1" source="Rw3OwPzCOUPklT5W8J6p-51" target="Rw3OwPzCOUPklT5W8J6p-65">
          <mxGeometry relative="1" as="geometry">
            <mxPoint x="530" y="900" as="sourcePoint" />
            <mxPoint x="530" y="850" as="targetPoint" />
          </mxGeometry>
        </mxCell>
        <mxCell id="Rw3OwPzCOUPklT5W8J6p-91" value="" style="endArrow=none;html=1;rounded=0;entryX=0;entryY=0.75;entryDx=0;entryDy=0;" edge="1" parent="1" source="Rw3OwPzCOUPklT5W8J6p-67" target="Rw3OwPzCOUPklT5W8J6p-51">
          <mxGeometry relative="1" as="geometry">
            <mxPoint x="510" y="900" as="sourcePoint" />
            <mxPoint x="510" y="850" as="targetPoint" />
          </mxGeometry>
        </mxCell>
        <mxCell id="Rw3OwPzCOUPklT5W8J6p-92" value="" style="endArrow=none;html=1;rounded=0;entryX=1;entryY=0;entryDx=0;entryDy=0;exitX=0;exitY=0.5;exitDx=0;exitDy=0;" edge="1" parent="1" source="Rw3OwPzCOUPklT5W8J6p-51" target="Rw3OwPzCOUPklT5W8J6p-66">
          <mxGeometry relative="1" as="geometry">
            <mxPoint x="520" y="930" as="sourcePoint" />
            <mxPoint x="520" y="880" as="targetPoint" />
          </mxGeometry>
        </mxCell>
        <mxCell id="Rw3OwPzCOUPklT5W8J6p-93" value="" style="endArrow=none;html=1;rounded=0;entryX=0.5;entryY=1;entryDx=0;entryDy=0;" edge="1" parent="1" source="Rw3OwPzCOUPklT5W8J6p-52" target="Rw3OwPzCOUPklT5W8J6p-59">
          <mxGeometry relative="1" as="geometry">
            <mxPoint x="660" y="860" as="sourcePoint" />
            <mxPoint x="660" y="810" as="targetPoint" />
          </mxGeometry>
        </mxCell>
        <mxCell id="Rw3OwPzCOUPklT5W8J6p-94" value="" style="endArrow=none;html=1;rounded=0;entryX=0.4;entryY=0.98;entryDx=0;entryDy=0;exitX=0.5;exitY=0;exitDx=0;exitDy=0;entryPerimeter=0;" edge="1" parent="1" source="Rw3OwPzCOUPklT5W8J6p-62" target="Rw3OwPzCOUPklT5W8J6p-52">
          <mxGeometry relative="1" as="geometry">
            <mxPoint x="860" y="1220" as="sourcePoint" />
            <mxPoint x="660" y="790" as="targetPoint" />
          </mxGeometry>
        </mxCell>
        <mxCell id="Rw3OwPzCOUPklT5W8J6p-95" value="" style="endArrow=none;html=1;rounded=0;exitX=0.376;exitY=0.03;exitDx=0;exitDy=0;exitPerimeter=0;entryX=1;entryY=1;entryDx=0;entryDy=0;" edge="1" parent="1" source="Rw3OwPzCOUPklT5W8J6p-61" target="Rw3OwPzCOUPklT5W8J6p-52">
          <mxGeometry relative="1" as="geometry">
            <mxPoint x="740" y="910" as="sourcePoint" />
            <mxPoint x="770" y="890" as="targetPoint" />
          </mxGeometry>
        </mxCell>
        <mxCell id="Rw3OwPzCOUPklT5W8J6p-96" value="" style="endArrow=none;html=1;rounded=0;exitX=0.372;exitY=-0.05;exitDx=0;exitDy=0;exitPerimeter=0;entryX=1;entryY=0.5;entryDx=0;entryDy=0;" edge="1" parent="1" source="Rw3OwPzCOUPklT5W8J6p-63" target="Rw3OwPzCOUPklT5W8J6p-52">
          <mxGeometry relative="1" as="geometry">
            <mxPoint x="870" y="810" as="sourcePoint" />
            <mxPoint x="870" y="760" as="targetPoint" />
          </mxGeometry>
        </mxCell>
        <mxCell id="Rw3OwPzCOUPklT5W8J6p-97" value="" style="endArrow=none;html=1;rounded=0;exitX=0.584;exitY=0;exitDx=0;exitDy=0;exitPerimeter=0;entryX=0.5;entryY=1;entryDx=0;entryDy=0;" edge="1" parent="1" source="Rw3OwPzCOUPklT5W8J6p-52" target="Rw3OwPzCOUPklT5W8J6p-58">
          <mxGeometry relative="1" as="geometry">
            <mxPoint x="880" y="810" as="sourcePoint" />
            <mxPoint x="880" y="760" as="targetPoint" />
          </mxGeometry>
        </mxCell>
        <mxCell id="Rw3OwPzCOUPklT5W8J6p-98" value="" style="endArrow=none;html=1;rounded=0;entryX=0.5;entryY=1;entryDx=0;entryDy=0;exitX=0;exitY=0;exitDx=0;exitDy=0;" edge="1" parent="1" source="Rw3OwPzCOUPklT5W8J6p-79" target="Rw3OwPzCOUPklT5W8J6p-53">
          <mxGeometry relative="1" as="geometry">
            <mxPoint x="640" y="1270" as="sourcePoint" />
            <mxPoint x="1070" y="800" as="targetPoint" />
          </mxGeometry>
        </mxCell>
        <mxCell id="Rw3OwPzCOUPklT5W8J6p-99" value="" style="endArrow=none;html=1;rounded=0;exitX=0.5;exitY=0;exitDx=0;exitDy=0;entryX=0.164;entryY=0.98;entryDx=0;entryDy=0;entryPerimeter=0;" edge="1" parent="1" source="Rw3OwPzCOUPklT5W8J6p-82" target="Rw3OwPzCOUPklT5W8J6p-53">
          <mxGeometry relative="1" as="geometry">
            <mxPoint x="840" y="850" as="sourcePoint" />
            <mxPoint x="1000" y="850" as="targetPoint" />
          </mxGeometry>
        </mxCell>
        <mxCell id="Rw3OwPzCOUPklT5W8J6p-100" value="" style="endArrow=none;html=1;rounded=0;exitX=1;exitY=1;exitDx=0;exitDy=0;entryX=0.044;entryY=0.27;entryDx=0;entryDy=0;entryPerimeter=0;" edge="1" parent="1" source="Rw3OwPzCOUPklT5W8J6p-53" target="Rw3OwPzCOUPklT5W8J6p-78">
          <mxGeometry relative="1" as="geometry">
            <mxPoint x="1040" y="809" as="sourcePoint" />
            <mxPoint x="730" y="1190" as="targetPoint" />
          </mxGeometry>
        </mxCell>
        <mxCell id="Rw3OwPzCOUPklT5W8J6p-101" value="" style="endArrow=none;html=1;rounded=0;exitX=0.392;exitY=-0.07;exitDx=0;exitDy=0;exitPerimeter=0;entryX=0.404;entryY=0.98;entryDx=0;entryDy=0;entryPerimeter=0;" edge="1" parent="1" source="Rw3OwPzCOUPklT5W8J6p-81" target="Rw3OwPzCOUPklT5W8J6p-53">
          <mxGeometry relative="1" as="geometry">
            <mxPoint x="1020" y="920" as="sourcePoint" />
            <mxPoint x="1180" y="920" as="targetPoint" />
          </mxGeometry>
        </mxCell>
        <mxCell id="Rw3OwPzCOUPklT5W8J6p-102" value="" style="endArrow=none;html=1;rounded=0;entryX=0.5;entryY=0;entryDx=0;entryDy=0;exitX=0.6;exitY=1;exitDx=0;exitDy=0;exitPerimeter=0;" edge="1" parent="1" source="Rw3OwPzCOUPklT5W8J6p-53" target="Rw3OwPzCOUPklT5W8J6p-80">
          <mxGeometry relative="1" as="geometry">
            <mxPoint x="1070" y="890" as="sourcePoint" />
            <mxPoint x="1230" y="890" as="targetPoint" />
          </mxGeometry>
        </mxCell>
        <mxCell id="Rw3OwPzCOUPklT5W8J6p-104" value="" style="endArrow=none;html=1;rounded=0;entryX=0.328;entryY=1.06;entryDx=0;entryDy=0;entryPerimeter=0;exitX=0.25;exitY=0;exitDx=0;exitDy=0;" edge="1" parent="1" source="Rw3OwPzCOUPklT5W8J6p-57" target="Rw3OwPzCOUPklT5W8J6p-76">
          <mxGeometry relative="1" as="geometry">
            <mxPoint x="1300" y="838" as="sourcePoint" />
            <mxPoint x="1230" y="850" as="targetPoint" />
          </mxGeometry>
        </mxCell>
        <mxCell id="Rw3OwPzCOUPklT5W8J6p-105" value="" style="endArrow=none;html=1;rounded=0;entryX=0.28;entryY=0.97;entryDx=0;entryDy=0;entryPerimeter=0;exitX=0.924;exitY=-0.06;exitDx=0;exitDy=0;exitPerimeter=0;" edge="1" parent="1" source="Rw3OwPzCOUPklT5W8J6p-57" target="Rw3OwPzCOUPklT5W8J6p-74">
          <mxGeometry relative="1" as="geometry">
            <mxPoint x="1190" y="820" as="sourcePoint" />
            <mxPoint x="1190" y="770" as="targetPoint" />
          </mxGeometry>
        </mxCell>
        <mxCell id="Rw3OwPzCOUPklT5W8J6p-106" value="" style="endArrow=none;html=1;rounded=0;entryX=0;entryY=0.5;entryDx=0;entryDy=0;exitX=1;exitY=0.75;exitDx=0;exitDy=0;" edge="1" parent="1" source="Rw3OwPzCOUPklT5W8J6p-57" target="Rw3OwPzCOUPklT5W8J6p-73">
          <mxGeometry relative="1" as="geometry">
            <mxPoint x="1170" y="850" as="sourcePoint" />
            <mxPoint x="1170" y="800" as="targetPoint" />
          </mxGeometry>
        </mxCell>
        <mxCell id="Rw3OwPzCOUPklT5W8J6p-107" value="" style="endArrow=none;html=1;rounded=0;exitX=0.75;exitY=1;exitDx=0;exitDy=0;" edge="1" parent="1" source="Rw3OwPzCOUPklT5W8J6p-57" target="Rw3OwPzCOUPklT5W8J6p-75">
          <mxGeometry relative="1" as="geometry">
            <mxPoint x="1290" y="920" as="sourcePoint" />
            <mxPoint x="1290" y="870" as="targetPoint" />
          </mxGeometry>
        </mxCell>
        <mxCell id="Rw3OwPzCOUPklT5W8J6p-108" value="" style="endArrow=none;html=1;rounded=0;exitX=0.382;exitY=-0.05;exitDx=0;exitDy=0;exitPerimeter=0;entryX=0.5;entryY=1;entryDx=0;entryDy=0;" edge="1" parent="1" source="Rw3OwPzCOUPklT5W8J6p-77" target="Rw3OwPzCOUPklT5W8J6p-57">
          <mxGeometry relative="1" as="geometry">
            <mxPoint x="1280" y="930" as="sourcePoint" />
            <mxPoint x="1280" y="880" as="targetPoint" />
          </mxGeometry>
        </mxCell>
        <mxCell id="Rw3OwPzCOUPklT5W8J6p-116" value="" style="edgeStyle=entityRelationEdgeStyle;fontSize=12;html=1;endArrow=ERoneToMany;startArrow=ERmandOne;rounded=0;exitX=1;exitY=0.5;exitDx=0;exitDy=0;entryX=0;entryY=0.5;entryDx=0;entryDy=0;" edge="1" parent="1" source="Rw3OwPzCOUPklT5W8J6p-119" target="Rw3OwPzCOUPklT5W8J6p-50">
          <mxGeometry width="100" height="100" relative="1" as="geometry">
            <mxPoint x="350" y="1010" as="sourcePoint" />
            <mxPoint x="450" y="910" as="targetPoint" />
          </mxGeometry>
        </mxCell>
        <mxCell id="Rw3OwPzCOUPklT5W8J6p-117" value="" style="edgeStyle=entityRelationEdgeStyle;fontSize=12;html=1;endArrow=ERoneToMany;startArrow=ERmandOne;rounded=0;" edge="1" parent="1" source="Rw3OwPzCOUPklT5W8J6p-120">
          <mxGeometry width="100" height="100" relative="1" as="geometry">
            <mxPoint x="810" y="900" as="sourcePoint" />
            <mxPoint x="650" y="900" as="targetPoint" />
            <Array as="points" />
          </mxGeometry>
        </mxCell>
        <mxCell id="Rw3OwPzCOUPklT5W8J6p-128" value="" style="fontSize=12;html=1;endArrow=ERoneToMany;startArrow=ERmandOne;rounded=0;entryX=0.5;entryY=1;entryDx=0;entryDy=0;exitX=0.5;exitY=0;exitDx=0;exitDy=0;" edge="1" parent="1" source="Rw3OwPzCOUPklT5W8J6p-53" target="Rw3OwPzCOUPklT5W8J6p-50">
          <mxGeometry width="100" height="100" relative="1" as="geometry">
            <mxPoint x="510" y="1040" as="sourcePoint" />
            <mxPoint x="490" y="950" as="targetPoint" />
          </mxGeometry>
        </mxCell>
        <mxCell id="Rw3OwPzCOUPklT5W8J6p-129" value="Manages" style="shape=rhombus;perimeter=rhombusPerimeter;whiteSpace=wrap;html=1;align=center;" vertex="1" parent="1">
          <mxGeometry x="510" y="950" width="120" height="60" as="geometry" />
        </mxCell>
        <mxCell id="Rw3OwPzCOUPklT5W8J6p-131" value="" style="edgeStyle=entityRelationEdgeStyle;fontSize=12;html=1;endArrow=ERoneToMany;startArrow=ERmandOne;rounded=0;entryX=1;entryY=0.5;entryDx=0;entryDy=0;" edge="1" parent="1" target="Rw3OwPzCOUPklT5W8J6p-120">
          <mxGeometry width="100" height="100" relative="1" as="geometry">
            <mxPoint x="810" y="900" as="sourcePoint" />
            <mxPoint x="580" y="899.5" as="targetPoint" />
            <Array as="points">
              <mxPoint x="780" y="879.5" />
              <mxPoint x="900" y="900" />
              <mxPoint x="870" y="900" />
              <mxPoint x="670" y="879.5" />
            </Array>
          </mxGeometry>
        </mxCell>
        <mxCell id="Rw3OwPzCOUPklT5W8J6p-136" value="" style="edgeStyle=orthogonalEdgeStyle;rounded=0;orthogonalLoop=1;jettySize=auto;html=1;" edge="1" parent="1" source="Rw3OwPzCOUPklT5W8J6p-120" target="Rw3OwPzCOUPklT5W8J6p-52">
          <mxGeometry relative="1" as="geometry" />
        </mxCell>
        <mxCell id="Rw3OwPzCOUPklT5W8J6p-120" value="Manages" style="shape=rhombus;perimeter=rhombusPerimeter;whiteSpace=wrap;html=1;align=center;" vertex="1" parent="1">
          <mxGeometry x="690" y="870" width="120" height="60" as="geometry" />
        </mxCell>
        <mxCell id="Rw3OwPzCOUPklT5W8J6p-132" value="" style="fontSize=12;html=1;endArrow=ERoneToMany;startArrow=ERmandOne;rounded=0;entryX=1;entryY=0.5;entryDx=0;entryDy=0;exitX=0;exitY=0.5;exitDx=0;exitDy=0;" edge="1" parent="1" source="Rw3OwPzCOUPklT5W8J6p-133" target="Rw3OwPzCOUPklT5W8J6p-53">
          <mxGeometry width="100" height="100" relative="1" as="geometry">
            <mxPoint x="840" y="920" as="sourcePoint" />
            <mxPoint x="980" y="1000" as="targetPoint" />
          </mxGeometry>
        </mxCell>
        <mxCell id="Rw3OwPzCOUPklT5W8J6p-134" value="" style="fontSize=12;html=1;endArrow=ERoneToMany;startArrow=ERmandOne;rounded=0;entryX=1;entryY=0.5;entryDx=0;entryDy=0;exitX=0;exitY=0.75;exitDx=0;exitDy=0;" edge="1" parent="1" source="Rw3OwPzCOUPklT5W8J6p-52" target="Rw3OwPzCOUPklT5W8J6p-133">
          <mxGeometry width="100" height="100" relative="1" as="geometry">
            <mxPoint x="840" y="920" as="sourcePoint" />
            <mxPoint x="560" y="1140" as="targetPoint" />
          </mxGeometry>
        </mxCell>
        <mxCell id="Rw3OwPzCOUPklT5W8J6p-133" value="Taugh bY" style="shape=rhombus;perimeter=rhombusPerimeter;whiteSpace=wrap;html=1;align=center;rotation=-40;" vertex="1" parent="1">
          <mxGeometry x="730" y="980" width="120" height="60" as="geometry" />
        </mxCell>
        <mxCell id="Rw3OwPzCOUPklT5W8J6p-137" style="edgeStyle=orthogonalEdgeStyle;rounded=0;orthogonalLoop=1;jettySize=auto;html=1;exitX=0.5;exitY=1;exitDx=0;exitDy=0;" edge="1" parent="1" source="Rw3OwPzCOUPklT5W8J6p-81" target="Rw3OwPzCOUPklT5W8J6p-81">
          <mxGeometry relative="1" as="geometry" />
        </mxCell>
        <mxCell id="Rw3OwPzCOUPklT5W8J6p-138" value="" style="edgeStyle=entityRelationEdgeStyle;fontSize=12;html=1;endArrow=ERoneToMany;startArrow=ERmandOne;rounded=0;exitX=1;exitY=0.5;exitDx=0;exitDy=0;entryX=0;entryY=0.5;entryDx=0;entryDy=0;" edge="1" parent="1" source="Rw3OwPzCOUPklT5W8J6p-51" target="Rw3OwPzCOUPklT5W8J6p-119">
          <mxGeometry width="100" height="100" relative="1" as="geometry">
            <mxPoint x="230" y="900" as="sourcePoint" />
            <mxPoint x="520" y="900" as="targetPoint" />
          </mxGeometry>
        </mxCell>
        <mxCell id="Rw3OwPzCOUPklT5W8J6p-119" value="Manages" style="shape=rhombus;perimeter=rhombusPerimeter;whiteSpace=wrap;html=1;align=center;" vertex="1" parent="1">
          <mxGeometry x="320" y="870" width="120" height="60" as="geometry" />
        </mxCell>
        <mxCell id="Rw3OwPzCOUPklT5W8J6p-139" value="" style="fontSize=12;html=1;endArrow=ERoneToMany;startArrow=ERmandOne;rounded=0;entryX=0.5;entryY=1;entryDx=0;entryDy=0;exitX=0.5;exitY=0;exitDx=0;exitDy=0;" edge="1" parent="1" source="Rw3OwPzCOUPklT5W8J6p-57" target="Rw3OwPzCOUPklT5W8J6p-51">
          <mxGeometry width="100" height="100" relative="1" as="geometry">
            <mxPoint x="300" y="1110" as="sourcePoint" />
            <mxPoint x="400" y="1010" as="targetPoint" />
          </mxGeometry>
        </mxCell>
        <mxCell id="Rw3OwPzCOUPklT5W8J6p-140" style="edgeStyle=orthogonalEdgeStyle;rounded=0;orthogonalLoop=1;jettySize=auto;html=1;exitX=0.5;exitY=1;exitDx=0;exitDy=0;" edge="1" parent="1" source="Rw3OwPzCOUPklT5W8J6p-68" target="Rw3OwPzCOUPklT5W8J6p-68">
          <mxGeometry relative="1" as="geometry" />
        </mxCell>
        <mxCell id="Rw3OwPzCOUPklT5W8J6p-141" value="Make" style="shape=rhombus;perimeter=rhombusPerimeter;whiteSpace=wrap;html=1;align=center;" vertex="1" parent="1">
          <mxGeometry x="150" y="990" width="120" height="60" as="geometry" />
        </mxCell>
        <mxCell id="Rw3OwPzCOUPklT5W8J6p-142" value="" style="fontSize=12;html=1;endArrow=ERoneToMany;startArrow=ERmandOne;rounded=0;entryX=0.892;entryY=1.06;entryDx=0;entryDy=0;entryPerimeter=0;exitX=0;exitY=0.5;exitDx=0;exitDy=0;" edge="1" parent="1" source="Rw3OwPzCOUPklT5W8J6p-143" target="Rw3OwPzCOUPklT5W8J6p-51">
          <mxGeometry width="100" height="100" relative="1" as="geometry">
            <mxPoint x="300" y="1110" as="sourcePoint" />
            <mxPoint x="400" y="1010" as="targetPoint" />
          </mxGeometry>
        </mxCell>
        <mxCell id="Rw3OwPzCOUPklT5W8J6p-144" value="" style="fontSize=12;html=1;endArrow=ERoneToMany;startArrow=ERmandOne;rounded=0;entryX=1;entryY=0.5;entryDx=0;entryDy=0;exitX=0;exitY=0.5;exitDx=0;exitDy=0;" edge="1" parent="1" source="Rw3OwPzCOUPklT5W8J6p-53" target="Rw3OwPzCOUPklT5W8J6p-143">
          <mxGeometry width="100" height="100" relative="1" as="geometry">
            <mxPoint x="525" y="1150" as="sourcePoint" />
            <mxPoint x="249" y="922" as="targetPoint" />
          </mxGeometry>
        </mxCell>
        <mxCell id="Rw3OwPzCOUPklT5W8J6p-143" value="Enrolls" style="shape=rhombus;perimeter=rhombusPerimeter;whiteSpace=wrap;html=1;align=center;rotation=45;" vertex="1" parent="1">
          <mxGeometry x="315" y="1000" width="120" height="60" as="geometry" />
        </mxCell>
      </root>
    </mxGraphModel>
  </diagram>
</mxfile>
